<?xml version="1.0" encoding="utf-8"?>
<!-- Generator: Adobe Illustrator 20.1.0, SVG Export Plug-In . SVG Version: 6.00 Build 0)  -->
<svg version="1.1" id="img_fundo" xmlns="http://www.w3.org/2000/svg" xmlns:xlink="http://www.w3.org/1999/xlink" x="0px" y="0px"
	 viewBox="0 0 2560 15100.1" style="enable-background:new 0 0 2560 15100.1;" xml:space="preserve">
<style type="text/css">
	.st0{clip-path:url(#SVGID_2_);fill:#FFFFFF;}
	.st1{clip-path:url(#SVGID_2_);fill:none;stroke:#000000;stroke-width:25.518;stroke-linejoin:round;stroke-miterlimit:10;}
	.st2{clip-path:url(#SVGID_2_);fill:none;stroke:#000000;stroke-width:31.3362;stroke-linejoin:round;stroke-miterlimit:10;}
</style>
<g>
	<defs>
		<rect id="SVGID_1_" width="2560" height="15100.1"/>
	</defs>
	<clipPath id="SVGID_2_">
		<use xlink:href="#SVGID_1_"  style="overflow:visible;"/>
	</clipPath>
	<rect class="st0" width="2560" height="15100.1"/>
	<polyline class="st1" points="318.2,506.5 1081.6,131.4 1969.7,141.6 2000.3,1213.4 	"/>
	<polyline class="st1" points="642.5,547.7 1489.9,131.4 2377.9,141.6 2408.6,1213.4 1885.2,1440.5 	"/>
	<polyline class="st1" points="664.3,14006.9 -209.3,13621 534.4,12413.7 	"/>
	<polyline class="st1" points="479.8,828.2 1898.2,131.4 2786.2,141.6 2816.9,1213.4 1858.7,1630 	"/>
	<polyline class="st1" points="701.6,13843.1 199,13621 523.9,13093.6 	"/>
	<polyline class="st1" points="1254.1,14087.1 2370.1,14580.2 2667.3,14277.6 	"/>
	<polyline class="st1" points="888.1,828.2 2306.5,131.4 3194.5,141.6 3225.1,1213.4 1859.2,1808.4 	"/>
	<line class="st1" x1="2778.4" y1="14580.2" x2="1665.2" y2="14088.4"/>
	<polyline class="st1" points="969,2129.1 -184.5,2542.4 367.2,1044.9 	"/>
	<polyline class="st1" points="961.2,2226 78.2,2542.4 630,1044.9 	"/>
	<polyline class="st1" points="970.3,2323.9 360.3,2542.4 912,1044.9 -788.8,1044.9 	"/>
	<polyline class="st1" points="954.8,2040 -447.2,2542.4 104.5,1044.9 	"/>
	<line class="st1" x1="-591.3" y1="6421.4" x2="554.6" y2="3029.2"/>
	<line class="st1" x1="-327.3" y1="6237.8" x2="678.9" y2="3259"/>
	<line class="st1" x1="-51.3" y1="6075.6" x2="835.5" y2="3450.4"/>
	<line class="st1" x1="-854.1" y1="6601.4" x2="437.3" y2="2778.5"/>
	<polyline class="st1" points="2569.8,3724.3 2539.7,3818.8 1783.9,4316.1 	"/>
	<line class="st1" x1="2624.3" y1="3969.6" x2="1788.6" y2="4519.4"/>
	<line class="st1" x1="2607.2" y1="4202.5" x2="1812.5" y2="4725.3"/>
	<polyline class="st1" points="2613.4,2599.7 2225.9,3818.8 1770.9,4118.2 	"/>
	<line class="st2" x1="1491.3" y1="5442.3" x2="2936.8" y2="6305.5"/>
	<line class="st2" x1="1706.2" y1="5340.5" x2="3331.9" y2="6311.4"/>
	<line class="st2" x1="1917.6" y1="5219.7" x2="3730.5" y2="6302.4"/>
	<line class="st2" x1="1280" y1="5546.2" x2="2577.9" y2="6321.3"/>
	<polyline class="st2" points="-604.8,6785.7 -322.2,7905.2 594.1,8608.5 	"/>
	<polyline class="st2" points="-348.1,6767.3 -60.9,7905.2 594.1,8407.9 	"/>
	<polyline class="st2" points="-63.6,6783.2 219.7,7905.2 594.1,8192.6 	"/>
	<polyline class="st2" points="-869.3,6773.1 -583.6,7905.2 594.1,8809.1 	"/>
	<polyline class="st1" points="3433.5,12146.4 1857,12711.3 2408.8,11213.7 	"/>
	<polyline class="st1" points="3696.2,12146.4 2119.8,12711.3 2671.5,11213.7 	"/>
	<polyline class="st1" points="3978.2,12146.4 2401.8,12711.3 2953.6,11213.7 1651.2,11213.7 	"/>
	<polyline class="st1" points="3170.7,12146.4 1594.3,12711.3 2146,11213.7 	"/>
	<line class="st1" x1="1928.3" y1="9812.6" x2="2884.3" y2="6982.6"/>
	<line class="st1" x1="2028.4" y1="10114.1" x2="3147.1" y2="6802.6"/>
	<line class="st1" x1="2145.3" y1="10423" x2="3429.1" y2="6622.6"/>
	<line class="st1" x1="1857.3" y1="9425.1" x2="2621.6" y2="7162.6"/>
	<polyline class="st1" points="116.4,9507.2 147,10579 -984.8,11070.3 	"/>
	<polyline class="st1" points="-1781.7,10193.9 -363.3,9497 524.7,9507.2 555.3,10579 -992,11250.6 	"/>
	<line class="st1" x1="862.3" y1="10623" x2="-981.5" y2="11424.7"/>
	<line class="st1" x1="-1373.4" y1="10193.9" x2="32.7" y2="9503.2"/>
	<line class="st1" x1="881.8" y1="10792.5" x2="-989.2" y2="11607.5"/>
	<line class="st1" x1="-965.1" y1="10193.9" x2="453.2" y2="9497"/>
	<polyline class="st1" points="855.5,14091.4 1961.8,14580.2 2686,13843.1 	"/>
	<polyline class="st1" points="2601,13513.9 1553.5,14580.2 -617.6,13621 555.3,11716.8 	"/>
</g>
</svg>
