<?xml version="1.0" encoding="utf-8"?>
<!-- Generator: Adobe Illustrator 20.1.0, SVG Export Plug-In . SVG Version: 6.00 Build 0)  -->
<svg version="1.1" xmlns="http://www.w3.org/2000/svg" xmlns:xlink="http://www.w3.org/1999/xlink" x="0px" y="0px"
	 viewBox="0 0 1141.5 352.7" style="enable-background:new 0 0 1141.5 352.7;" xml:space="preserve">
<style type="text/css">
	.st0{fill:#6E6E6E;}
	.st1{display:none;}
	.st2{display:inline;fill:#6E6E6E;}
</style>
<g id="Camada_3">
	<g>
		<g>
			<g>
				<path class="st0" d="M937.2,338.7v-29.8l-1.2,0.3v27.5c-1.4-0.8-3.9-0.4-6.1,1.4c-2.8,2.2-4.2,5.4-3.1,7.2
					c1.1,1.8,4.2,1.6,7-0.6c2-1.5,3.2-3.6,3.4-5.3l0,0C937.2,339.4,937.2,338.9,937.2,338.7z"/>
				<polygon class="st0" points="941.2,338.1 923.7,342.8 923.7,344.4 941.2,339.7 				"/>
				<path class="st0" d="M923.9,324.4v-29.8l-1.2,0.3v27.5c-1.4-0.8-3.9-0.4-6.1,1.4c-2.8,2.2-4.2,5.4-3.1,7.2
					c1.1,1.8,4.2,1.6,7-0.6c2-1.5,3.2-3.6,3.4-5.3l0,0C923.9,325.1,923.9,324.6,923.9,324.4z"/>
				<path class="st0" d="M965.9,314.8c-2-2.2-4.1-3.8-6.1-5v26.9c-1.4-0.8-3.9-0.4-6.1,1.4c-2.8,2.2-4.2,5.4-3.1,7.2
					c1.1,1.8,4.2,1.6,7-0.6c2-1.5,3.2-3.6,3.4-5.3h0c0,0,0-0.5,0-0.7v-21.9c2,0.4,4,0.9,5.8,3.5c2.2,3.1,1.6,5.8,0.6,8.6
					c-0.9,2.7-2.9,6.2-2.9,6.2s4.2-5.8,4.8-10.1C970,320.7,968.3,317.4,965.9,314.8z"/>
				<polygon class="st0" points="965.1,338.1 947.6,342.8 947.6,344.4 965.1,339.7 				"/>
				<path class="st0" d="M876.1,333.3v-33.1l-1.2,3.6v27.5c-1.4-0.8-3.9-0.4-6.1,1.4c-2.8,2.2-4.2,5.4-3.1,7.2
					c1.1,1.8,4.2,1.6,7-0.6c2-1.5,3.2-3.6,3.4-5.3h0C876.1,334,876.1,333.5,876.1,333.3z"/>
				<path class="st0" d="M899.9,324.5v-29.8l-1.2,0.3v27.5c-1.4-0.8-3.9-0.4-6.1,1.4c-2.8,2.2-4.2,5.4-3.1,7.2
					c1.1,1.8,4.2,1.6,7-0.6c2-1.5,3.2-3.6,3.4-5.3l0,0C899.9,325.2,899.9,324.7,899.9,324.5z"/>
				<polygon class="st0" points="874.9,303.8 899.9,294.7 899.9,287.3 874.9,296.4 				"/>
			</g>
			<g>
				<path class="st0" d="M806.5,225.7v29.8l1.2-0.3v-27.5c1.4,0.8,3.9,0.4,6.1-1.4c2.8-2.2,4.2-5.4,3.1-7.2c-1.1-1.8-4.2-1.6-7,0.6
					c-2,1.5-3.2,3.6-3.4,5.3h0C806.5,224.9,806.5,225.4,806.5,225.7z"/>
				<path class="st0" d="M831.4,247.1V214l-1.2,3.6v27.5c-1.4-0.8-3.9-0.4-6.1,1.4c-2.8,2.2-4.2,5.4-3.1,7.2c1.1,1.8,4.2,1.6,7-0.6
					c2-1.5,3.2-3.6,3.4-5.3l0,0C831.4,247.8,831.4,247.3,831.4,247.1z"/>
				<path class="st0" d="M855.2,220.1v-29.8l-1.2,0.3v27.5c-1.4-0.8-3.9-0.4-6.1,1.4c-2.8,2.2-4.2,5.4-3.1,7.2
					c1.1,1.8,4.2,1.6,7-0.6c2-1.5,3.2-3.6,3.4-5.3l0,0C855.2,220.8,855.3,220.3,855.2,220.1z"/>
				<polygon class="st0" points="830.2,217.6 855.2,190.3 855.2,182.9 830.2,210.2 				"/>
				<path class="st0" d="M868.5,237.9v-29.8l-1.2,0.3v27.5c-1.4-0.8-3.9-0.4-6.1,1.4c-2.8,2.2-4.2,5.4-3.1,7.2
					c1.1,1.8,4.2,1.6,7-0.6c2-1.5,3.2-3.6,3.4-5.3l0,0C868.5,238.7,868.5,238.1,868.5,237.9z"/>
				<path class="st0" d="M881.4,258.4c2,2.2,4.1,3.8,6.1,5v-26.9c1.4,0.8,3.9,0.4,6.1-1.4c2.8-2.2,4.2-5.4,3.1-7.2
					c-1.1-1.8-4.2-1.6-7,0.6c-2,1.5-3.2,3.6-3.4,5.3h0c0,0,0,0.5,0,0.7v21.9c-2-0.4-4-0.9-5.8-3.5c-2.2-3.1-1.6-5.8-0.6-8.6
					c0.9-2.7,2.9-6.2,2.9-6.2s-4.2,5.8-4.8,10.1C877.4,252.4,879,255.7,881.4,258.4z"/>
				<path class="st0" d="M911.1,246.9V217l-1.2,0.3v27.5c-1.4-0.8-3.9-0.4-6.1,1.4c-2.8,2.2-4.2,5.4-3.1,7.2c1.1,1.8,4.2,1.6,7-0.6
					c2-1.5,3.2-3.6,3.4-5.3l0,0C911.1,247.6,911.1,247.1,911.1,246.9z"/>
				<path class="st0" d="M982.7,251v-29.8l-1.2,0.3V249c-1.4-0.8-3.9-0.4-6.1,1.4c-2.8,2.2-4.2,5.4-3.1,7.2c1.1,1.8,4.2,1.6,7-0.6
					c2-1.5,3.2-3.6,3.4-5.3l0,0C982.7,251.7,982.8,251.2,982.7,251z"/>
				<path class="st0" d="M995,225.7v29.8l1.2-0.3v-27.5c1.4,0.8,3.9,0.4,6.1-1.4c2.8-2.2,4.2-5.4,3.1-7.2c-1.1-1.8-4.2-1.6-7,0.6
					c-2,1.5-3.2,3.6-3.4,5.3h0C995,224.9,995,225.4,995,225.7z"/>
				<path class="st0" d="M1024.7,218.4c-2-2.2-4.1-3.8-6.1-5v26.9c-1.4-0.8-3.9-0.4-6.1,1.4c-2.8,2.2-4.2,5.4-3.1,7.2
					c1.1,1.8,4.2,1.6,7-0.6c2-1.5,3.2-3.6,3.4-5.3l0,0c0,0,0-0.5,0-0.7v-21.9c2,0.4,4,0.9,5.8,3.5c2.2,3.1,1.6,5.8,0.6,8.6
					c-0.9,2.8-2.9,6.2-2.9,6.2s4.2-5.8,4.8-10.1C1028.8,224.3,1027.1,221,1024.7,218.4z"/>
				<g>
					<path class="st0" d="M927.7,225.6c-0.9-2.1-4.1-1.2-6,1.8v-11.6l-1.2,0.3v21.3l1.2-0.3c0,0,3.3-3.4,4.2-4.9
						C926.8,230.9,928.6,227.7,927.7,225.6z M921.7,235.1v-5.7c0.4-0.6,1.2-1.6,2-2c1-0.5,1.9-0.4,2,1.2
						C925.9,230.1,923.2,233.4,921.7,235.1z"/>
				</g>
				<path class="st0" d="M938.6,233v-33.1l-1.2,3.6V231c-1.4-0.8-3.9-0.4-6.1,1.4c-2.8,2.2-4.2,5.4-3.1,7.2c1.1,1.8,4.2,1.6,7-0.6
					c2-1.5,3.2-3.6,3.4-5.3l0,0C938.6,233.7,938.6,233.2,938.6,233z"/>
				<path class="st0" d="M962.5,251.2v-29.8l-1.2,0.3v27.5c-1.4-0.8-3.9-0.4-6.1,1.4c-2.8,2.2-4.2,5.4-3.1,7.2
					c1.1,1.8,4.2,1.6,7-0.6c2-1.5,3.2-3.6,3.4-5.3l0,0C962.5,251.9,962.5,251.4,962.5,251.2z"/>
				<polygon class="st0" points="937.5,203.4 962.5,222.7 962.5,215.4 937.5,196.1 				"/>
			</g>
		</g>
		<g>
			<path class="st0" d="M0,302.4l7.9-2.1v50.4L0,352.7V302.4z"/>
			<path class="st0" d="M63.9,299.1v36.5l-7.1,1.9v-50.4l9.9-2.7l8.1,28v-30.1l7-1.9v50.4l-8.1,2.2L63.9,299.1z"/>
			<path class="st0" d="M128.4,268l24.5-6.6v7.2l-8.3,2.2V314l-7.9,2.1v-43.2l-8.3,2.2V268z"/>
			<path class="st0" d="M207.4,268l10.9-2.9v7.2l-10.9,2.9V290l13.7-3.7v7.2l-21.6,5.8v-50.4l21.6-5.8v7.2l-13.7,3.7V268z"/>
			<path class="st0" d="M285.7,276.2c-0.4-1.2-0.7-1.9-0.7-6v-7.9c0-4.7-1.6-6-5.2-5l-2.7,0.7v20.5l-7.9,2.1v-50.4l11.9-3.2
				c8.2-2.2,11.7,0.7,11.7,8.4v4c0,5.2-1.7,9-5.2,11.6c4,0.6,5.3,4.1,5.3,9.3v7.8c0,2.4,0.1,4.2,0.9,5.9L285.7,276.2z M277.1,235.3
				v15.5l3.1-0.8c2.9-0.8,4.8-2.6,4.8-6.6v-5c0-3.6-1.2-4.9-4-4.1L277.1,235.3z"/>
			<path class="st0" d="M364.2,236.4v6.7c0,8.1-4,13.7-11.8,15.8c-7.8,2.1-11.8-1.4-11.8-9.5v-26.2c0-8.1,4-13.7,11.8-15.8
				c7.8-2.1,11.8,1.4,11.8,9.5v4.9l-7.5,2v-5.4c0-3.6-1.6-4.5-4.1-3.9c-2.5,0.7-4.1,2.5-4.1,6.1v27.2c0,3.6,1.6,4.5,4.1,3.8
				c2.5-0.7,4.1-2.4,4.1-6v-7.2L364.2,236.4z"/>
			<path class="st0" d="M437.8,235.4l-8,2.1l-1.4-8.8l-9.7,2.6l-1.4,9.5l-7.3,1.9l8.1-52.5l11.6-3.1L437.8,235.4z M414,188.8
				l6.4-9.7l7.1-1.9l6.4,6.3l-6.8,1.8l-3.2-3.1l-3.2,4.8L414,188.8z M419.7,224.3l7.6-2l-3.8-24.4L419.7,224.3z"/>
			<path class="st0" d="M501.4,203.8l5.4-37.2l11-2.9V214l-7.5,2v-36.1l-5.5,37.6l-7.5,2l-5.9-34v35.6l-6.9,1.9v-50.4l11-2.9
				L501.4,203.8z"/>
			<path class="st0" d="M590.4,155.8v1.8c0,5.2-1.6,8.9-5.1,11.5c4.2,0.5,5.9,3.9,5.9,9.2v4.1c0,7.8-4.1,13-12,15.2l-12.4,3.3v-50.4
				l11.9-3.2C586.9,145.1,590.4,148,590.4,155.8z M574.7,155.6v13.3l3.1-0.8c2.9-0.8,4.7-2.6,4.7-6.6v-2.8c0-3.6-1.2-4.9-4-4.1
				L574.7,155.6z M574.7,176.1v15.5l4.5-1.2c2.7-0.7,4.1-2.3,4.1-6.1v-4.4c0-4.7-1.5-5.7-5.1-4.7L574.7,176.1z"/>
			<path class="st0" d="M639.1,131.1l7.9-2.1v50.4l-7.9,2.1V131.1z"/>
			<path class="st0" d="M695.3,128.2c0-8.1,4.2-13.8,12-15.9c7.8-2.1,12,1.4,12,9.4v26.2c0,8.1-4.2,13.8-12,15.9
				c-7.8,2.1-12-1.4-12-9.4V128.2z M703.2,152.7c0,3.6,1.6,4.5,4.1,3.9c2.5-0.7,4.1-2.5,4.1-6.1v-27.2c0-3.6-1.6-4.5-4.1-3.9
				c-2.5,0.7-4.1,2.5-4.1,6.1V152.7z"/>
			<path class="st0" d="M838.7,113.4l5.4-37.2l11-2.9v50.4l-7.5,2V89.5l-5.5,37.6l-7.5,2l-5.9-34v35.6l-6.9,1.9V82.2l11-2.9
				L838.7,113.4z"/>
			<path class="st0" d="M903.4,72.4c0-8.1,4.2-13.8,12-15.9c7.8-2.1,12,1.4,12,9.4v26.2c0,8.1-4.2,13.8-12,15.9
				c-7.8,2.1-12-1.4-12-9.4V72.4z M911.3,97c0,3.6,1.6,4.5,4.1,3.9c2.5-0.7,4.1-2.5,4.1-6.1V67.6c0-3.6-1.6-4.5-4.1-3.9
				c-2.5,0.7-4.1,2.5-4.1,6.1V97z"/>
			<path class="st0" d="M975.7,40.9l12.5-3.4c7.9-2.1,11.8,1.2,11.8,9.3v25.5c0,8.1-3.9,13.5-11.8,15.6l-12.5,3.4V40.9z M983.6,46
				v36l4.5-1.2c2.5-0.7,4-2.4,4-6V48.6c0-3.6-1.5-4.5-4-3.8L983.6,46z"/>
			<path class="st0" d="M1073.8,65l-8,2.1l-1.4-8.8l-9.7,2.6l-1.4,9.5l-7.3,1.9l8.1-52.5l11.6-3.1L1073.8,65z M1055.7,53.9l7.6-2
				l-3.8-24.4L1055.7,53.9z"/>
			<path class="st0" d="M1120.6,2.1l7.9-2.1v43.2l13-3.5v7.2l-20.9,5.6V2.1z"/>
		</g>
	</g>
</g>
<g id="Camada_4" class="st1">
	<path class="st2" d="M-2.9,363.2v-3.6L1142.8,52.5v3.6L-2.9,363.2z"/>
	<path class="st2" d="M499.4,918.2v-2.4l141.2-0.2v2.4L499.4,918.2z"/>
	<path class="st2" d="M396.5,584.8v-2.5l346.8,0v2.5L396.5,584.8z"/>
	<path class="st2" d="M390.7,696.4v-2.5l358.4,0v2.5L390.7,696.4z"/>
	<path class="st2" d="M254.3,808v-2.5l631.3-0.1v2.5L254.3,808z"/>
</g>
</svg>
