<?xml version="1.0" encoding="utf-8"?>
<!-- Generator: Adobe Illustrator 20.1.0, SVG Export Plug-In . SVG Version: 6.00 Build 0)  -->
<svg version="1.1" xmlns="http://www.w3.org/2000/svg" xmlns:xlink="http://www.w3.org/1999/xlink" x="0px" y="0px"
	 viewBox="0 0 587.9 357.5" style="enable-background:new 0 0 587.9 357.5;" xml:space="preserve">
<style type="text/css">
	.st0{fill:#6E6E6E;}
</style>
<g id="img_fundo">
</g>
<g id="Camada_2">
</g>
<g id="Camada_3">
	<g>
		<path class="st0" d="M173.2,158.4c-0.4-1.2-0.7-1.9-0.7-5.9v-7.7c0-4.6-1.5-5.8-5.1-4.9l-2.7,0.7v20.1l-7.7,2.1v-49.3l11.7-3.1
			c8-2.2,11.5,0.7,11.5,8.3v3.9c0,5.1-1.6,8.8-5.1,11.4c3.9,0.6,5.1,4,5.1,9.1v7.6c0,2.4,0.1,4.1,0.8,5.8L173.2,158.4z M164.8,118.4
			v15.1l3-0.8c2.9-0.8,4.6-2.5,4.6-6.5v-4.9c0-3.5-1.2-4.7-3.9-4L164.8,118.4z"/>
		<path class="st0" d="M227.6,94.5l7.7-2.1v49.3l-7.7,2.1V94.5z"/>
		<path class="st0" d="M305.7,104.5v6.5c0,7.9-3.9,13.4-11.5,15.5c-7.6,2-11.5-1.4-11.5-9.3V91.6c0-7.9,3.9-13.4,11.5-15.5
			c7.6-2,11.5,1.4,11.5,9.3v4.8l-7.3,2v-5.3c0-3.5-1.5-4.4-4-3.8c-2.5,0.7-4,2.4-4,5.9v26.6c0,3.5,1.5,4.4,4,3.7
			c2.5-0.7,4-2.3,4-5.9v-7L305.7,104.5z"/>
		<path class="st0" d="M377.7,103.6l-7.8,2.1l-1.3-8.6l-9.5,2.5l-1.3,9.3l-7.1,1.9l7.9-51.4l11.3-3L377.7,103.6z M360,92.7l7.5-2
			l-3.7-23.9L360,92.7z"/>
		<path class="st0" d="M439.7,87c-0.4-1.2-0.7-1.9-0.7-5.9v-7.7c0-4.6-1.5-5.9-5.1-4.9l-2.7,0.7v20.1l-7.7,2.1V42l11.7-3.1
			c8-2.2,11.5,0.7,11.5,8.3V51c0,5.1-1.6,8.8-5.1,11.4c3.9,0.6,5.1,4,5.1,9.1v7.6c0,2.4,0.1,4.1,0.8,5.8L439.7,87z M431.3,47v15.1
			l3-0.8c2.9-0.8,4.6-2.5,4.6-6.5V50c0-3.5-1.2-4.7-3.9-4L431.3,47z"/>
		<path class="st0" d="M494.1,23.1l12.3-3.3c7.7-2.1,11.5,1.2,11.5,9.1v24.9c0,7.9-3.8,13.2-11.5,15.3l-12.3,3.3V23.1z M501.8,28.1
			v35.2l4.4-1.2c2.5-0.7,3.9-2.3,3.9-5.8V30.7c0-3.5-1.5-4.4-3.9-3.7L501.8,28.1z"/>
		<path class="st0" d="M564.4,16.1c0-7.9,4.2-13.5,11.8-15.5c7.6-2,11.8,1.4,11.8,9.2v25.6c0,7.9-4.2,13.5-11.8,15.5
			c-7.6,2-11.8-1.4-11.8-9.2V16.1z M572.1,40.2c0,3.5,1.5,4.4,4,3.8c2.5-0.7,4-2.4,4-5.9V11.4c0-3.5-1.5-4.4-4-3.8
			c-2.5,0.7-4,2.4-4,5.9V40.2z"/>
	</g>
	<g>
		<path class="st0" d="M23.1,277.9v6.5c0,7.9-3.9,13.4-11.5,15.5C3.9,302,0,298.6,0,290.7V265c0-7.9,3.9-13.4,11.5-15.5
			c7.6-2,11.5,1.4,11.5,9.3v4.8l-7.3,2v-5.3c0-3.5-1.5-4.4-4-3.8c-2.5,0.7-4,2.4-4,5.9v26.6c0,3.5,1.5,4.4,4,3.7
			c2.5-0.7,4-2.3,4-5.9v-7L23.1,277.9z"/>
		<path class="st0" d="M69.4,246.4c0-7.9,4.2-13.5,11.8-15.5c7.6-2,11.8,1.4,11.8,9.2v25.6c0,7.9-4.2,13.5-11.8,15.5
			c-7.6,2-11.8-1.4-11.8-9.2V246.4z M77.2,270.5c0,3.5,1.5,4.4,4,3.8c2.5-0.7,4-2.4,4-5.9v-26.6c0-3.5-1.5-4.4-4-3.8
			c-2.5,0.7-4,2.4-4,5.9V270.5z"/>
		<path class="st0" d="M147.9,234.3l10.6-2.8v7l-10.6,2.8v14.4l13.4-3.6v7l-21.1,5.7v-49.3l21.1-5.7v7l-13.4,3.6V234.3z"/>
		<path class="st0" d="M208.3,197.4l7.7-2.1v42.2l12.7-3.4v7l-20.5,5.5V197.4z"/>
		<path class="st0" d="M282.2,226.9l-7.7,2.1v-49.3l7.7-2.1v21.1l8.8-2.4v-21.1l7.9-2.1v49.3l-7.9,2.1v-21.1l-8.8,2.4V226.9z"/>
		<path class="st0" d="M346.1,172.3c0-7.9,4.2-13.5,11.8-15.5c7.6-2,11.8,1.4,11.8,9.2v25.6c0,7.9-4.2,13.5-11.8,15.5
			c-7.6,2-11.8-1.4-11.8-9.2V172.3z M353.8,196.3c0,3.5,1.5,4.4,4,3.8c2.5-0.7,4-2.4,4-5.9v-26.6c0-3.5-1.5-4.4-4-3.8
			c-2.5,0.7-4,2.4-4,5.9V196.3z"/>
	</g>
	<g>
		<g>
			<path class="st0" d="M354.4,294.8c2.2,2.4,4.4,4.2,6.6,5.4v-29.1c1.6,0.9,4.2,0.4,6.6-1.5c3-2.3,4.5-5.8,3.3-7.8
				c-1.2-2-4.5-1.7-7.5,0.6c-2.1,1.6-3.5,3.9-3.7,5.7l0,0c0,0,0,0.5,0,0.8v23.7c-2.1-0.4-4.3-1-6.3-3.8c-2.4-3.4-1.7-6.3-0.7-9.3
				c1-3,3.1-6.7,3.1-6.7s-4.6,6.2-5.2,10.9C350,288.4,351.8,291.9,354.4,294.8z"/>
			<g>
				<path class="st0" d="M382.2,259.5v32.3l1.3-0.3v-29.8c1.6,0.9,4.2,0.4,6.6-1.5c3-2.3,4.5-5.8,3.3-7.8c-1.2-2-4.5-1.7-7.5,0.6
					c-2.1,1.6-3.5,3.9-3.7,5.7l0,0C382.2,258.7,382.2,259.2,382.2,259.5z"/>
			</g>
			<g>
				<path class="st0" d="M409,282.4v-32.3l-1.3,0.3v29.8c-1.6-0.9-4.2-0.4-6.6,1.5c-3,2.3-4.5,5.8-3.3,7.8c1.2,2,4.5,1.7,7.5-0.6
					c2.1-1.6,3.5-3.9,3.7-5.7l0,0C409,283.2,409,282.6,409,282.4z"/>
			</g>
			<g>
				<path class="st0" d="M427.9,292.9v-32.3l-1.3,0.3v29.8c-1.6-0.9-4.2-0.4-6.6,1.5c-3,2.3-4.5,5.8-3.3,7.8c1.2,2,4.5,1.7,7.5-0.6
					c2.1-1.6,3.5-3.9,3.7-5.7l0,0C427.9,293.6,427.9,293.1,427.9,292.9z"/>
				<polygon class="st0" points="432.2,292.2 413.3,297.3 413.3,299 432.2,293.9 				"/>
			</g>
			<path class="st0" d="M446.1,294.8c2.2,2.4,4.4,4.2,6.6,5.4v-29.1c1.6,0.9,4.2,0.4,6.6-1.5c3-2.3,4.5-5.8,3.3-7.8
				c-1.2-2-4.5-1.7-7.5,0.6c-2.1,1.6-3.5,3.9-3.7,5.7l0,0c0,0,0,0.5,0,0.8v23.7c-2.1-0.4-4.3-1-6.3-3.8c-2.4-3.4-1.7-6.3-0.7-9.3
				c1-3,3.1-6.7,3.1-6.7s-4.6,6.2-5.2,10.9C441.7,288.4,443.5,291.9,446.1,294.8z"/>
			<g>
				<path class="st0" d="M478.4,277.5v-32.3l-1.3,0.3v29.8c-1.6-0.9-4.2-0.4-6.6,1.5c-3,2.3-4.5,5.8-3.3,7.8c1.2,2,4.5,1.7,7.6-0.6
					c2.1-1.6,3.5-3.9,3.7-5.7l0,0C478.4,278.3,478.4,277.7,478.4,277.5z"/>
			</g>
			<path class="st0" d="M506.3,251.7c-2.2-2.4-4.4-4.2-6.6-5.4v29.1c-1.6-0.9-4.2-0.4-6.6,1.5c-3,2.3-4.5,5.8-3.3,7.8
				c1.2,2,4.5,1.7,7.6-0.6c2.1-1.6,3.5-3.9,3.7-5.7l0,0c0,0,0-0.6,0-0.8v-23.7c2.1,0.4,4.3,1,6.3,3.8c2.4,3.4,1.7,6.3,0.7,9.3
				c-1,3-3.1,6.7-3.1,6.7s4.6-6.2,5.2-10.9C510.7,258.1,508.9,254.6,506.3,251.7z"/>
		</g>
		<g>
			<path class="st0" d="M274.7,338.7v-32.3l-1.3,0.3v29.8c-1.6-0.9-4.2-0.4-6.6,1.5c-3,2.3-4.5,5.8-3.3,7.8c1.2,2,4.5,1.7,7.5-0.6
				c2.1-1.6,3.5-3.9,3.7-5.7l0,0C274.7,339.5,274.8,338.9,274.7,338.7z"/>
			<path class="st0" d="M302.3,307.6c-2.2-2.4-4.4-4.2-6.6-5.4v29.1c-1.6-0.9-4.2-0.4-6.6,1.5c-3,2.3-4.5,5.8-3.3,7.8
				c1.2,2,4.5,1.7,7.5-0.6c2.1-1.6,3.5-3.9,3.7-5.7l0,0c0,0,0-0.6,0-0.8v-23.7c2.1,0.4,4.3,1,6.3,3.8c2.4,3.4,1.7,6.3,0.7,9.3
				c-1,3-3.2,6.7-3.2,6.7s4.6-6.2,5.2-10.9C306.7,314.1,304.9,310.5,302.3,307.6z"/>
			<path class="st0" d="M323,329.2v-32.3l-1.3,0.3V327c-1.6-0.9-4.2-0.4-6.6,1.5c-3,2.3-4.5,5.8-3.3,7.8c1.2,2,4.5,1.7,7.5-0.6
				c2.1-1.6,3.5-3.9,3.7-5.7l0,0C323,329.9,323,329.4,323,329.2z"/>
			<path class="st0" d="M343.2,323.2c-2.2-2.4-4.4-4.2-6.6-5.4v29.1c-1.5-0.9-4.2-0.4-6.6,1.5c-3,2.3-4.5,5.8-3.3,7.8
				c1.2,2,4.5,1.7,7.5-0.6c2.1-1.6,3.5-3.9,3.7-5.7l0,0c0,0,0-0.5,0-0.8v-23.7c2.1,0.4,4.3,1,6.3,3.8c2.4,3.4,1.7,6.3,0.7,9.3
				c-1,3-3.1,6.7-3.1,6.7s4.6-6.2,5.2-10.9C347.6,329.7,345.8,326.1,343.2,323.2z"/>
			<polygon class="st0" points="342.3,348.4 323.4,353.5 323.4,355.2 342.3,350.2 			"/>
			<path class="st0" d="M357.9,320.5v32.3l1.3-0.3v-29.8c1.6,0.9,4.2,0.4,6.6-1.5c3-2.3,4.5-5.8,3.3-7.8c-1.2-2-4.5-1.7-7.5,0.6
				c-2.1,1.6-3.5,3.9-3.7,5.7l0,0C357.9,319.7,357.9,320.2,357.9,320.5z"/>
			<path class="st0" d="M390.2,307.6c-2.2-2.4-4.4-4.2-6.6-5.4v29.1c-1.6-0.9-4.2-0.4-6.6,1.5c-3,2.3-4.5,5.8-3.3,7.8
				c1.2,2,4.5,1.7,7.5-0.6c2.1-1.6,3.5-3.9,3.7-5.7l0,0c0,0,0-0.6,0-0.8v-23.7c2.1,0.4,4.3,1,6.3,3.8c2.4,3.4,1.7,6.3,0.7,9.3
				c-1,3-3.2,6.7-3.2,6.7s4.6-6.2,5.2-10.9C394.6,314.1,392.8,310.5,390.2,307.6z"/>
		</g>
	</g>
</g>
<g id="Camada_4">
</g>
</svg>
